<?xml version="1.0" encoding="UTF-8" standalone="no"?>
<!-- Created with Inkscape (http://www.inkscape.org/) -->

<svg
        width="380"
        height="75"
        viewBox="0 0 100.54166 19.84375"
        version="1.1"
        id="svg5"
        xmlns="http://www.w3.org/2000/svg"
>
  <defs
     id="defs2" />
  <g
     id="layer1"
     transform="translate(-38.173321,-40.684523)">
    <path
       id="text120"
       style="font-style:normal;font-variant:normal;font-weight:normal;font-stretch:normal;font-size:22.5778px;font-family:Calibri;-inkscape-font-specification:Calibri;fill:#000000;stroke-width:0.264583"
       d="m 58.46924,41.919073 v 17.153992 h 1.840714 V 41.919073 Z m -9.900171,0.970483 -6.305559,16.183509 h 1.896009 l 1.973523,-5.11545 h 6.46007 l 1.984375,5.11545 h 1.94045 l -6.26215,-16.183509 z m 0.805118,1.951302 c 0.06615,0.198438 0.150321,0.459002 0.253215,0.782382 0.102894,0.323379 0.202112,0.636079 0.297656,0.93741 0.102894,0.301331 0.176561,0.517798 0.220659,0.65009 l 1.885156,5.082377 h -5.269446 l 1.918229,-5.082377 c 0.0588,-0.176389 0.128445,-0.389354 0.20929,-0.639238 0.08085,-0.257234 0.161517,-0.532841 0.242362,-0.826823 0.0882,-0.301331 0.169384,-0.60249 0.242879,-0.903821 z m 19.446875,1.929082 c -1.080381,0 -2.021467,0.257061 -2.822566,0.771529 -0.79375,0.514467 -1.411111,1.249593 -1.852084,2.205033 -0.433622,0.94809 -0.650089,2.07257 -0.650089,3.373438 0,1.330266 0.238515,2.454745 0.716235,3.373437 0.47772,0.918692 1.1467,1.616726 2.006596,2.094446 0.867245,0.47037 1.881482,0.7059 3.042708,0.7059 0.815799,0 1.521355,-0.06264 2.116667,-0.187585 0.602662,-0.124943 1.208999,-0.32338 1.819011,-0.595313 v -1.609721 c -0.632061,0.271933 -1.2419,0.477892 -1.829863,0.617534 -0.587963,0.139641 -1.264465,0.209289 -2.028817,0.209289 -1.242071,0 -2.204689,-0.370807 -2.888195,-1.11311 -0.683507,-0.742304 -1.036285,-1.822685 -1.058334,-3.241146 h 8.345227 v -1.135848 c 0,-1.095081 -0.194418,-2.050176 -0.583943,-2.865975 C 72.764089,48.5487 72.20185,47.90929 71.466896,47.453619 70.731942,46.997947 69.849998,46.76994 68.821062,46.76994 Z m 12.931511,0 c -1.153877,0 -2.150084,0.246037 -2.987931,0.738456 -0.830498,0.485069 -1.469908,1.194644 -1.91823,2.128035 -0.448321,0.926042 -0.67231,2.050521 -0.67231,3.373438 0,0.992187 0.132292,1.877634 0.396875,2.656685 0.271933,0.779051 0.650262,1.437007 1.135331,1.973523 0.492419,0.536516 1.073205,0.947918 1.742013,1.23455 0.676157,0.279283 1.418288,0.419096 2.226737,0.419096 0.867246,0 1.642966,-0.139813 2.326473,-0.419096 0.690857,-0.286632 1.278647,-0.698034 1.763717,-1.23455 0.485069,-0.536516 0.856393,-1.194472 1.113627,-1.973523 0.257234,-0.779051 0.385506,-1.664498 0.385506,-2.656685 0,-1.315567 -0.23151,-2.436544 -0.694531,-3.362586 -0.455671,-0.933391 -1.098584,-1.646468 -1.929081,-2.138887 -0.823148,-0.492419 -1.785766,-0.738456 -2.888196,-0.738456 z m 12.402344,0 c -1.344966,0 -2.432869,0.275607 -3.263367,0.826823 -0.823148,0.543865 -1.23455,1.326591 -1.23455,2.348177 0,0.668807 0.150321,1.212501 0.451652,1.631425 0.308681,0.418923 0.742648,0.77572 1.301213,1.069702 0.565914,0.286632 1.234377,0.576766 2.006079,0.870748 0.779051,0.286632 1.389407,0.551215 1.830379,0.79375 0.440972,0.235185 0.753155,0.481222 0.936894,0.738456 0.191088,0.249884 0.286804,0.540535 0.286804,0.871264 0,0.580614 -0.23553,1.039615 -0.7059,1.377694 -0.470371,0.338079 -1.227028,0.507463 -2.270663,0.507463 -0.712905,0 -1.411455,-0.09922 -2.094962,-0.297657 -0.683507,-0.198437 -1.271298,-0.418923 -1.763717,-0.661458 v 1.686719 c 0.463021,0.242535 1.003212,0.429948 1.620573,0.562239 0.617361,0.132292 1.348468,0.198438 2.193665,0.198438 0.992187,0 1.845078,-0.132292 2.557983,-0.396875 0.720255,-0.264583 1.27147,-0.657956 1.653646,-1.179773 0.389525,-0.529167 0.583943,-1.179601 0.583943,-1.951302 0,-0.661458 -0.150321,-1.201649 -0.451652,-1.620573 -0.293981,-0.426273 -0.716924,-0.786573 -1.268139,-1.080554 -0.551215,-0.301331 -1.205152,-0.591466 -1.962154,-0.870748 -0.757003,-0.286632 -1.366842,-0.536689 -1.829863,-0.749825 -0.463021,-0.213137 -0.801272,-0.440628 -1.014408,-0.683163 -0.205787,-0.242534 -0.308508,-0.551215 -0.308508,-0.926041 0,-0.48507 0.223988,-0.867418 0.67231,-1.1467 0.455671,-0.279283 1.106105,-0.419096 1.951302,-0.419096 0.587963,0 1.164729,0.07367 1.730644,0.220658 0.565914,0.146991 1.0991,0.326882 1.598869,0.540019 l 0.617016,-1.46606 C 97.428791,47.321155 96.833478,47.130239 96.194069,46.990598 95.562008,46.843607 94.882521,46.76994 94.154917,46.76994 Z m 12.049393,0 c -1.09508,0 -2.07274,0.223988 -2.93264,0.67231 -0.85989,0.448322 -1.53588,1.13935 -2.0283,2.072742 -0.48507,0.926041 -0.7276,2.120169 -0.7276,3.582727 0,1.396412 0.23151,2.553964 0.69453,3.472656 0.46302,0.918692 1.10995,1.602199 1.94045,2.050521 0.8305,0.448322 1.78961,0.672827 2.87734,0.672827 0.68351,0 1.2713,-0.05512 1.76372,-0.165365 0.49977,-0.110243 0.95177,-0.268602 1.35599,-0.474389 v -1.631425 c -0.41892,0.183738 -0.88545,0.3456 -1.39991,0.485241 -0.51447,0.132292 -1.09176,0.198438 -1.73117,0.198438 -0.80109,0 -1.46956,-0.180408 -2.00607,-0.540536 -0.52917,-0.367476 -0.93007,-0.896643 -1.202,-1.5875 -0.26458,-0.690856 -0.39687,-1.524684 -0.39687,-2.502172 0,-1.021586 0.13631,-1.881482 0.40824,-2.579688 0.27928,-0.698206 0.69419,-1.227373 1.2454,-1.5875 0.55857,-0.360127 1.25712,-0.540535 2.09497,-0.540535 0.41892,0 0.8669,0.05914 1.34462,0.176733 0.48507,0.117593 0.91151,0.249884 1.27899,0.396875 l 0.55139,-1.532723 c -0.36013,-0.183738 -0.82315,-0.334059 -1.38907,-0.451652 -0.55856,-0.124942 -1.13935,-0.187585 -1.74201,-0.187585 z m 24.06623,0 c -0.54386,0 -1.06201,0.07717 -1.55443,0.23151 -0.49241,0.146991 -0.93741,0.367477 -1.33428,0.661458 -0.39688,0.286632 -0.72359,0.642913 -0.98082,1.069186 h -0.0992 l -0.27595,-1.741496 h -1.47691 v 12.082467 h 1.82986 v -6.32778 c 0,-1.440509 0.2721,-2.539437 0.81597,-3.296439 0.54387,-0.757002 1.48443,-1.135331 2.82205,-1.135331 0.94809,0 1.65014,0.249539 2.10581,0.749308 0.46303,0.499768 0.69454,1.25344 0.69454,2.260327 v 7.749915 h 1.80764 V 51.20171 c 0,-1.550752 -0.36731,-2.675231 -1.10226,-3.373437 -0.73495,-0.705556 -1.81884,-1.058333 -3.252,-1.058333 z m -13.74748,0.02222 c -0.77905,0 -1.52118,0.09922 -2.22674,0.297657 -0.70555,0.198437 -1.33044,0.436953 -1.8743,0.716235 l 0.56224,1.389063 c 0.51447,-0.249885 1.05816,-0.466352 1.63142,-0.65009 0.57327,-0.183738 1.1761,-0.275952 1.80816,-0.275952 0.8158,0 1.44769,0.209462 1.89601,0.628385 0.44832,0.418924 0.67283,1.150547 0.67283,2.194182 v 0.738456 l -2.0836,0.08837 c -1.95497,0.0588 -3.41018,0.411574 -4.36562,1.058333 -0.95544,0.646759 -1.43351,1.572801 -1.43351,2.778125 0,0.801099 0.16187,1.462558 0.48525,1.984375 0.33072,0.521817 0.77922,0.91117 1.34513,1.168404 0.57327,0.257234 1.2272,0.386023 1.96216,0.386023 0.6982,0 1.28599,-0.07367 1.76371,-0.220658 0.48507,-0.154341 0.91152,-0.378329 1.279,-0.672311 0.36747,-0.301331 0.72025,-0.672655 1.05833,-1.113627 h 0.0884 l 0.35243,1.785938 h 1.33428 v -8.212936 c 0,-1.41846 -0.34927,-2.451243 -1.04748,-3.098002 -0.6982,-0.646759 -1.76756,-0.969967 -3.20807,-0.969967 z m -47.724218,1.476913 c 0.690856,0 1.256598,0.15434 1.69757,0.463021 0.440973,0.301331 0.768199,0.727776 0.981336,1.278991 0.220486,0.543866 0.334232,1.175754 0.341581,1.896009 h -6.393925 c 0.110243,-1.146528 0.455499,-2.039497 1.036113,-2.678907 0.580613,-0.639409 1.359836,-0.959114 2.337325,-0.959114 z m 12.909289,0.04444 c 0.852546,0 1.547078,0.190915 2.083594,0.573091 0.536516,0.382176 0.933391,0.92587 1.190625,1.631425 0.257234,0.698206 0.386023,1.529048 0.386023,2.491838 0,0.970139 -0.128789,1.811488 -0.386023,2.524394 -0.257234,0.712905 -0.657611,1.26412 -1.201477,1.653645 -0.536516,0.389526 -1.223526,0.584461 -2.061373,0.584461 -0.845197,0 -1.536226,-0.194935 -2.072742,-0.584461 -0.536516,-0.389525 -0.933391,-0.94074 -1.190625,-1.653645 -0.257234,-0.712906 -0.386023,-1.554255 -0.386023,-2.524394 0,-1.469908 0.290652,-2.620455 0.871265,-3.450952 0.587963,-0.830498 1.509985,-1.245402 2.766756,-1.245402 z m 37.262329,4.806425 v 1.113627 c 0,1.190625 -0.34176,2.083593 -1.02526,2.678906 -0.68351,0.595312 -1.56195,0.892969 -2.63499,0.892969 -0.69085,0 -1.24557,-0.165365 -1.66449,-0.496094 -0.41893,-0.330729 -0.62839,-0.841867 -0.62839,-1.532723 0,-0.79375 0.30868,-1.407092 0.92604,-1.840715 0.61736,-0.433622 1.6792,-0.680176 3.18585,-0.738973 z" />
  </g>
</svg>
